# xmcd CD database file
#
# Track frame offsets:
#	150
#	11887
#	23537
#	35565
#	51167
#	68217
#	80467
#	94305
#	114732
#	129195
#	142460
#	158540
#	172990
#	186922
#	201090
#	216357
#
# Disc length: 3104 seconds
#
# Revision: 0
# Processed by: cddbd v1.4PL0 Copyright (c) Steve Scherf et al.
# Submitted via: CDex 1.50beta9
#
DISCID=e30c1e10
DTITLE=Country Line Dancing - 16 Golden Greats of Country Line Dancing
DYEAR=1998
DGENRE=Country
TTITLE0=Holding Heaven - Rock Around The Clock (slow)
TTITLE1=Boom ! It Was Over - Tornado
TTITLE2=Hillbilly Rock - Hillbilly Rock
TTITLE3=Blame It On Your Heart - Sweetheart Schottische
TTITLE4=Ain't Going Down - Ain't Going Down
TTITLE5=What Part Of No - Sugartown
TTITLE6=Boot Scooting Boogie - Scooting Boogie
TTITLE7=John Deere Green - Budweiser
TTITLE8=Chattahoochie - Chattahoochie
TTITLE9=Papa Loved Mama - Southside Shuffle
TTITLE10=God Blessed Texas - God Blessed Texas
TTITLE11=Bubba Shot The Jukebox - Ramblin'
TTITLE12=Honky Tonk Blues - Honky Tonk Stomp
TTITLE13=Words By Heart - Bustin' Out
TTITLE14=Achy Breaky Heart - Achy Breaky Heart
TTITLE15=No One Else On Earth - Armadillo
EXTD=YEAR: 1998
EXTT0=
EXTT1=
EXTT2=
EXTT3=
EXTT4=
EXTT5=
EXTT6=
EXTT7=
EXTT8=
EXTT9=
EXTT10=
EXTT11=
EXTT12=
EXTT13=
EXTT14=
EXTT15=
PLAYORDER=
